# This file uses centimeters as units for non-parametric coordinates.

mtllib ball80flat.mtl
g default
v 0.000000 0.000000 -1.000000
v 0.723607 0.525731 -0.447214
v -0.276393 0.850651 -0.447214
v -0.894427 -0.000000 -0.447214
v -0.276393 -0.850651 -0.447214
v 0.723607 -0.525731 -0.447214
v 0.894427 0.000000 0.447214
v 0.276393 0.850651 0.447214
v -0.723607 0.525731 0.447214
v -0.723607 -0.525731 0.447214
v 0.276393 -0.850651 0.447214
v 0.000000 0.000000 1.000000
v -0.162460 0.500000 -0.850651
v 0.425325 0.309017 -0.850651
v 0.262866 0.809017 -0.525731
v -0.525731 -0.000000 -0.850651
v -0.688191 0.500000 -0.525731
v -0.162460 -0.500000 -0.850651
v -0.688191 -0.500000 -0.525731
v 0.425325 -0.309017 -0.850651
v 0.262866 -0.809017 -0.525731
v 0.850651 -0.000000 -0.525731
v 0.587785 0.809017 0.000000
v -0.000000 1.000000 0.000000
v -0.587785 0.809017 0.000000
v -0.951057 0.309017 0.000000
v -0.951056 -0.309017 0.000000
v -0.587785 -0.809017 0.000000
v 0.000000 -1.000000 0.000000
v 0.587785 -0.809017 0.000000
v 0.951057 -0.309017 0.000000
v 0.951057 0.309017 0.000000
v 0.688191 0.500000 0.525731
v -0.262866 0.809017 0.525731
v -0.850651 -0.000000 0.525731
v -0.262865 -0.809017 0.525731
v 0.688191 -0.500000 0.525731
v 0.525731 0.000000 0.850651
v 0.162460 0.500000 0.850651
v -0.425325 0.309017 0.850651
v -0.425325 -0.309017 0.850651
v 0.162460 -0.500000 0.850651
vt 1.000000 0.500000
vt 0.838104 0.676208
vt 0.088104 0.823792
vt 0.176208 0.500000
vt 0.088104 0.176208
vt 0.838104 0.323792
vt 0.676208 0.500000
vt 0.588104 0.823792
vt 0.338104 0.676208
vt 0.338104 0.323792
vt 0.588104 0.176208
vt 0.500000 0.500000
vt 0.030034 0.666667
vt 0.926208 0.600000
vt 0.926208 0.800000
vt 0.088104 0.500000
vt 0.146174 0.666667
vt 0.030034 0.333333
vt 0.146174 0.333333
vt 0.926208 0.400000
vt 0.926208 0.200000
vt 0.838104 0.500000
vt 0.750000 0.800000
vt 0.250000 1.000000
vt 0.250000 0.800000
vt 0.250000 0.600000
vt 0.250000 0.400000
vt 0.250000 0.200000
vt 0.750000 1.000000
vt 0.750000 0.200000
vt 0.750000 0.400000
vt 0.750000 0.600000
vt 0.646174 0.666667
vt 0.426208 0.800000
vt 0.338104 0.500000
vt 0.426208 0.200000
vt 0.646174 0.333333
vt 0.588104 0.500000
vt 0.530034 0.666667
vt 0.426208 0.600000
vt 0.426208 0.400000
vt 0.530034 0.333333
vt 1.030034 0.666667
vt 1.088104 0.823792
vt 1.088104 0.500000
vt 1.030034 0.333333
vt 1.088104 0.176208
vt 1.250000 1.000000
vn 0.102380 0.315094 -0.943522
vn 0.102380 0.315094 -0.943522
vn 0.102380 0.315094 -0.943522
vn -0.038534 0.748783 -0.661694
vn -0.038534 0.748783 -0.661694
vn -0.038534 0.748783 -0.661694
vn 0.187593 0.577350 -0.794654
vn 0.187593 0.577350 -0.794654
vn 0.187593 0.577350 -0.794654
vn 0.471298 0.583129 -0.661694
vn 0.471298 0.583129 -0.661694
vn 0.471298 0.583129 -0.661694
vn -0.268035 0.194739 -0.943522
vn -0.268035 0.194739 -0.943522
vn -0.268035 0.194739 -0.943522
vn -0.724043 0.194739 -0.661694
vn -0.724043 0.194739 -0.661694
vn -0.724043 0.194739 -0.661694
vn -0.491123 0.356822 -0.794655
vn -0.491123 0.356822 -0.794655
vn -0.491123 0.356822 -0.794655
vn -0.408949 0.628428 -0.661694
vn -0.408949 0.628428 -0.661694
vn -0.408949 0.628428 -0.661694
vn -0.268035 -0.194739 -0.943522
vn -0.268035 -0.194739 -0.943522
vn -0.268035 -0.194739 -0.943522
vn -0.408949 -0.628428 -0.661694
vn -0.408949 -0.628428 -0.661694
vn -0.408949 -0.628428 -0.661694
vn -0.491124 -0.356822 -0.794654
vn -0.491124 -0.356822 -0.794654
vn -0.491124 -0.356822 -0.794654
vn -0.724043 -0.194739 -0.661694
vn -0.724043 -0.194739 -0.661694
vn -0.724043 -0.194739 -0.661694
vn 0.102380 -0.315094 -0.943522
vn 0.102380 -0.315094 -0.943522
vn 0.102380 -0.315094 -0.943522
vn 0.471298 -0.583129 -0.661694
vn 0.471298 -0.583129 -0.661694
vn 0.471298 -0.583129 -0.661694
vn 0.187592 -0.577350 -0.794655
vn 0.187592 -0.577350 -0.794655
vn 0.187592 -0.577350 -0.794655
vn -0.038534 -0.748783 -0.661694
vn -0.038534 -0.748783 -0.661694
vn -0.038534 -0.748783 -0.661694
vn 0.331309 0.000000 -0.943522
vn 0.331309 0.000000 -0.943522
vn 0.331309 0.000000 -0.943522
vn 0.700228 0.268035 -0.661694
vn 0.700228 0.268035 -0.661694
vn 0.700228 0.268035 -0.661694
vn 0.607062 -0.000000 -0.794654
vn 0.607062 -0.000000 -0.794654
vn 0.607062 -0.000000 -0.794654
vn 0.700228 -0.268035 -0.661694
vn 0.700228 -0.268035 -0.661694
vn 0.700228 -0.268035 -0.661694
vn 0.534573 0.777868 -0.330384
vn 0.534573 0.777868 -0.330384
vn 0.534573 0.777868 -0.330384
vn 0.024741 0.943522 -0.330384
vn 0.024741 0.943522 -0.330384
vn 0.024741 0.943522 -0.330384
vn 0.303531 0.934172 -0.187593
vn 0.303531 0.934172 -0.187593
vn 0.303531 0.934172 -0.187593
vn 0.306569 0.943522 0.125624
vn 0.306569 0.943522 0.125624
vn 0.306569 0.943522 0.125624
vn -0.574604 0.748783 -0.330384
vn -0.574604 0.748783 -0.330384
vn -0.574604 0.748783 -0.330384
vn -0.889698 0.315094 -0.330384
vn -0.889698 0.315094 -0.330384
vn -0.889698 0.315094 -0.330384
vn -0.794654 0.577350 -0.187592
vn -0.794654 0.577350 -0.187592
vn -0.794654 0.577350 -0.187592
vn -0.802608 0.583129 0.125624
vn -0.802608 0.583129 0.125624
vn -0.802608 0.583129 0.125624
vn -0.889698 -0.315094 -0.330384
vn -0.889698 -0.315094 -0.330384
vn -0.889698 -0.315094 -0.330384
vn -0.574604 -0.748783 -0.330384
vn -0.574604 -0.748783 -0.330384
vn -0.574604 -0.748783 -0.330384
vn -0.794654 -0.577350 -0.187592
vn -0.794654 -0.577350 -0.187592
vn -0.794654 -0.577350 -0.187592
vn -0.802608 -0.583129 0.125624
vn -0.802608 -0.583129 0.125624
vn -0.802608 -0.583129 0.125624
vn 0.024740 -0.943522 -0.330384
vn 0.024740 -0.943522 -0.330384
vn 0.024740 -0.943522 -0.330384
vn 0.534573 -0.777868 -0.330384
vn 0.534573 -0.777868 -0.330384
vn 0.534573 -0.777868 -0.330384
vn 0.303531 -0.934172 -0.187593
vn 0.303531 -0.934172 -0.187593
vn 0.303531 -0.934172 -0.187593
vn 0.306569 -0.943522 0.125624
vn 0.306569 -0.943522 0.125624
vn 0.306569 -0.943522 0.125624
vn 0.904988 -0.268035 -0.330384
vn 0.904988 -0.268035 -0.330384
vn 0.904988 -0.268035 -0.330384
vn 0.904988 0.268035 -0.330384
vn 0.904988 0.268035 -0.330384
vn 0.904988 0.268035 -0.330384
vn 0.982247 0.000000 -0.187592
vn 0.982247 0.000000 -0.187592
vn 0.982247 0.000000 -0.187592
vn 0.992078 0.000000 0.125624
vn 0.992078 0.000000 0.125624
vn 0.992078 0.000000 0.125624
vn 0.802608 0.583129 -0.125624
vn 0.802608 0.583129 -0.125624
vn 0.802608 0.583129 -0.125624
vn 0.574604 0.748783 0.330384
vn 0.574604 0.748783 0.330384
vn 0.574604 0.748783 0.330384
vn 0.794655 0.577350 0.187593
vn 0.794655 0.577350 0.187593
vn 0.794655 0.577350 0.187593
vn 0.889698 0.315094 0.330384
vn 0.889698 0.315094 0.330384
vn 0.889698 0.315094 0.330384
vn -0.306569 0.943522 -0.125624
vn -0.306569 0.943522 -0.125624
vn -0.306569 0.943522 -0.125624
vn -0.534573 0.777868 0.330384
vn -0.534573 0.777868 0.330384
vn -0.534573 0.777868 0.330384
vn -0.303531 0.934172 0.187593
vn -0.303531 0.934172 0.187593
vn -0.303531 0.934172 0.187593
vn -0.024741 0.943522 0.330384
vn -0.024741 0.943522 0.330384
vn -0.024741 0.943522 0.330384
vn -0.992078 0.000000 -0.125624
vn -0.992078 0.000000 -0.125624
vn -0.992078 0.000000 -0.125624
vn -0.904988 -0.268035 0.330384
vn -0.904988 -0.268035 0.330384
vn -0.904988 -0.268035 0.330384
vn -0.982247 -0.000000 0.187592
vn -0.982247 -0.000000 0.187592
vn -0.982247 -0.000000 0.187592
vn -0.904988 0.268035 0.330384
vn -0.904988 0.268035 0.330384
vn -0.904988 0.268035 0.330384
vn -0.306569 -0.943522 -0.125624
vn -0.306569 -0.943522 -0.125624
vn -0.306569 -0.943522 -0.125624
vn -0.024740 -0.943522 0.330384
vn -0.024740 -0.943522 0.330384
vn -0.024740 -0.943522 0.330384
vn -0.303531 -0.934172 0.187593
vn -0.303531 -0.934172 0.187593
vn -0.303531 -0.934172 0.187593
vn -0.534573 -0.777868 0.330384
vn -0.534573 -0.777868 0.330384
vn -0.534573 -0.777868 0.330384
vn 0.802608 -0.583129 -0.125624
vn 0.802608 -0.583129 -0.125624
vn 0.802608 -0.583129 -0.125624
vn 0.889698 -0.315094 0.330384
vn 0.889698 -0.315094 0.330384
vn 0.889698 -0.315094 0.330384
vn 0.794654 -0.577350 0.187592
vn 0.794655 -0.577350 0.187592
vn 0.794655 -0.577350 0.187592
vn 0.574604 -0.748783 0.330384
vn 0.574604 -0.748783 0.330384
vn 0.574604 -0.748783 0.330384
vn 0.724043 0.194739 0.661694
vn 0.724043 0.194739 0.661694
vn 0.724043 0.194739 0.661694
vn 0.408949 0.628428 0.661694
vn 0.408949 0.628428 0.661694
vn 0.408949 0.628428 0.661694
vn 0.491124 0.356822 0.794654
vn 0.491124 0.356822 0.794654
vn 0.491124 0.356822 0.794654
vn 0.268035 0.194739 0.943522
vn 0.268035 0.194739 0.943522
vn 0.268035 0.194739 0.943522
vn 0.038534 0.748784 0.661693
vn 0.038534 0.748784 0.661693
vn 0.038534 0.748784 0.661693
vn -0.471298 0.583129 0.661694
vn -0.471298 0.583129 0.661694
vn -0.471298 0.583129 0.661694
vn -0.187593 0.577350 0.794654
vn -0.187593 0.577350 0.794654
vn -0.187592 0.577350 0.794654
vn -0.102380 0.315094 0.943522
vn -0.102380 0.315094 0.943522
vn -0.102380 0.315094 0.943522
vn -0.700228 0.268035 0.661694
vn -0.700228 0.268035 0.661694
vn -0.700228 0.268035 0.661694
vn -0.700228 -0.268035 0.661694
vn -0.700228 -0.268035 0.661694
vn -0.700228 -0.268035 0.661694
vn -0.607062 -0.000000 0.794654
vn -0.607062 -0.000000 0.794654
vn -0.607062 -0.000000 0.794654
vn -0.331309 0.000000 0.943522
vn -0.331309 0.000000 0.943522
vn -0.331309 0.000000 0.943522
vn -0.471298 -0.583129 0.661694
vn -0.471298 -0.583129 0.661694
vn -0.471298 -0.583129 0.661694
vn 0.038534 -0.748784 0.661693
vn 0.038534 -0.748784 0.661693
vn 0.038534 -0.748784 0.661693
vn -0.187593 -0.577350 0.794655
vn -0.187593 -0.577350 0.794654
vn -0.187593 -0.577350 0.794655
vn -0.102380 -0.315094 0.943522
vn -0.102380 -0.315094 0.943522
vn -0.102380 -0.315094 0.943522
vn 0.408949 -0.628428 0.661694
vn 0.408949 -0.628428 0.661694
vn 0.408949 -0.628428 0.661694
vn 0.724043 -0.194739 0.661694
vn 0.724043 -0.194739 0.661694
vn 0.724043 -0.194739 0.661694
vn 0.491124 -0.356822 0.794654
vn 0.491124 -0.356822 0.794654
vn 0.491124 -0.356822 0.794654
vn 0.268035 -0.194739 0.943522
vn 0.268035 -0.194739 0.943522
vn 0.268035 -0.194739 0.943522
s off
g pPlatonic1
usemtl initialShadingGroup
f 1/1/1 13/43/2 14/14/3
f 13/43/4 3/44/5 15/15/6
f 13/43/7 15/15/8 14/14/9
f 14/14/10 15/15/11 2/2/12
f 1/1/13 16/45/14 13/43/15
f 16/16/16 4/4/17 17/17/18
f 16/16/19 17/17/20 13/13/21
f 13/13/22 17/17/23 3/3/24
f 1/1/25 18/46/26 16/45/27
f 18/18/28 5/5/29 19/19/30
f 18/18/31 19/19/32 16/16/33
f 16/16/34 19/19/35 4/4/36
f 1/1/37 20/20/38 18/46/39
f 20/20/40 6/6/41 21/21/42
f 20/20/43 21/21/44 18/46/45
f 18/46/46 21/21/47 5/47/48
f 1/1/49 14/14/50 20/20/51
f 14/14/52 2/2/53 22/22/54
f 14/14/55 22/22/56 20/20/57
f 20/20/58 22/22/59 6/6/60
f 2/2/61 15/15/62 23/23/63
f 15/15/64 3/44/65 24/48/66
f 15/15/67 24/48/68 23/23/69
f 23/23/70 24/24/71 8/8/72
f 3/3/73 17/17/74 25/25/75
f 17/17/76 4/4/77 26/26/78
f 17/17/79 26/26/80 25/25/81
f 25/25/82 26/26/83 9/9/84
f 4/4/85 19/19/86 27/27/87
f 19/19/88 5/5/89 28/28/90
f 19/19/91 28/28/92 27/27/93
f 27/27/94 28/28/95 10/10/96
f 5/47/97 21/21/98 29/29/99
f 21/21/100 6/6/101 30/30/102
f 21/21/103 30/30/104 29/29/105
f 29/29/106 30/30/107 11/11/108
f 6/6/109 22/22/110 31/31/111
f 22/22/112 2/2/113 32/32/114
f 22/22/115 32/32/116 31/31/117
f 31/31/118 32/32/119 7/7/120
f 2/2/121 23/23/122 32/32/123
f 23/23/124 8/8/125 33/33/126
f 23/23/127 33/33/128 32/32/129
f 32/32/130 33/33/131 7/7/132
f 3/3/133 25/25/134 24/24/135
f 25/25/136 9/9/137 34/34/138
f 25/25/139 34/34/140 24/24/141
f 24/24/142 34/34/143 8/8/144
f 4/4/145 27/27/146 26/26/147
f 27/27/148 10/10/149 35/35/150
f 27/27/151 35/35/152 26/26/153
f 26/26/154 35/35/155 9/9/156
f 5/47/157 29/29/158 28/28/159
f 29/29/160 11/11/161 36/36/162
f 29/29/163 36/36/164 28/28/165
f 28/28/166 36/36/167 10/10/168
f 6/6/169 31/31/170 30/30/171
f 31/31/172 7/7/173 37/37/174
f 31/31/175 37/37/176 30/30/177
f 30/30/178 37/37/179 11/11/180
f 7/7/181 33/33/182 38/38/183
f 33/33/184 8/8/185 39/39/186
f 33/33/187 39/39/188 38/38/189
f 38/38/190 39/39/191 12/12/192
f 8/8/193 34/34/194 39/39/195
f 34/34/196 9/9/197 40/40/198
f 34/34/199 40/40/200 39/39/201
f 39/39/202 40/40/203 12/12/204
f 9/9/205 35/35/206 40/40/207
f 35/35/208 10/10/209 41/41/210
f 35/35/211 41/41/212 40/40/213
f 40/40/214 41/41/215 12/12/216
f 10/10/217 36/36/218 41/41/219
f 36/36/220 11/11/221 42/42/222
f 36/36/223 42/42/224 41/41/225
f 41/41/226 42/42/227 12/12/228
f 11/11/229 37/37/230 42/42/231
f 37/37/232 7/7/233 38/38/234
f 37/37/235 38/38/236 42/42/237
f 42/42/238 38/38/239 12/12/240
