# This file uses centimeters as units for non-parametric coordinates.

mtllib ball80.mtl
g default
v 0.000000 0.000000 -1.000000
v 0.723607 0.525731 -0.447214
v -0.276393 0.850651 -0.447214
v -0.894427 -0.000000 -0.447214
v -0.276393 -0.850651 -0.447214
v 0.723607 -0.525731 -0.447214
v 0.894427 0.000000 0.447214
v 0.276393 0.850651 0.447214
v -0.723607 0.525731 0.447214
v -0.723607 -0.525731 0.447214
v 0.276393 -0.850651 0.447214
v 0.000000 0.000000 1.000000
v -0.162460 0.500000 -0.850651
v 0.425325 0.309017 -0.850651
v 0.262866 0.809017 -0.525731
v -0.525731 -0.000000 -0.850651
v -0.688191 0.500000 -0.525731
v -0.162460 -0.500000 -0.850651
v -0.688191 -0.500000 -0.525731
v 0.425325 -0.309017 -0.850651
v 0.262866 -0.809017 -0.525731
v 0.850651 -0.000000 -0.525731
v 0.587785 0.809017 0.000000
v -0.000000 1.000000 0.000000
v -0.587785 0.809017 0.000000
v -0.951057 0.309017 0.000000
v -0.951056 -0.309017 0.000000
v -0.587785 -0.809017 0.000000
v 0.000000 -1.000000 0.000000
v 0.587785 -0.809017 0.000000
v 0.951057 -0.309017 0.000000
v 0.951057 0.309017 0.000000
v 0.688191 0.500000 0.525731
v -0.262866 0.809017 0.525731
v -0.850651 -0.000000 0.525731
v -0.262865 -0.809017 0.525731
v 0.688191 -0.500000 0.525731
v 0.525731 0.000000 0.850651
v 0.162460 0.500000 0.850651
v -0.425325 0.309017 0.850651
v -0.425325 -0.309017 0.850651
v 0.162460 -0.500000 0.850651
vt 1.000000 0.500000
vt 0.838104 0.676208
vt 0.088104 0.823792
vt 0.176208 0.500000
vt 0.088104 0.176208
vt 0.838104 0.323792
vt 0.676208 0.500000
vt 0.588104 0.823792
vt 0.338104 0.676208
vt 0.338104 0.323792
vt 0.588104 0.176208
vt 0.500000 0.500000
vt 0.030034 0.666667
vt 0.926208 0.600000
vt 0.926208 0.800000
vt 0.088104 0.500000
vt 0.146174 0.666667
vt 0.030034 0.333333
vt 0.146174 0.333333
vt 0.926208 0.400000
vt 0.926208 0.200000
vt 0.838104 0.500000
vt 0.750000 0.800000
vt 0.250000 1.000000
vt 0.250000 0.800000
vt 0.250000 0.600000
vt 0.250000 0.400000
vt 0.250000 0.200000
vt 0.750000 1.000000
vt 0.750000 0.200000
vt 0.750000 0.400000
vt 0.750000 0.600000
vt 0.646174 0.666667
vt 0.426208 0.800000
vt 0.338104 0.500000
vt 0.426208 0.200000
vt 0.646174 0.333333
vt 0.588104 0.500000
vt 0.530034 0.666667
vt 0.426208 0.600000
vt 0.426208 0.400000
vt 0.530034 0.333333
vt 1.030034 0.666667
vt 1.088104 0.823792
vt 1.088104 0.500000
vt 1.030034 0.333333
vt 1.088104 0.176208
vt 1.250000 1.000000
vn -0.000000 0.000000 -1.000000
vn -0.162460 0.500000 -0.850651
vn 0.425325 0.309017 -0.850651
vn -0.276393 0.850651 -0.447214
vn 0.262866 0.809017 -0.525731
vn 0.723607 0.525731 -0.447214
vn -0.525731 0.000000 -0.850651
vn -0.894427 -0.000000 -0.447214
vn -0.688191 0.500000 -0.525731
vn -0.162460 -0.500000 -0.850651
vn -0.276393 -0.850651 -0.447213
vn -0.688191 -0.500000 -0.525731
vn 0.425325 -0.309017 -0.850651
vn 0.723607 -0.525731 -0.447214
vn 0.262865 -0.809017 -0.525731
vn 0.850651 0.000000 -0.525731
vn 0.587785 0.809017 0.000000
vn 0.000000 1.000000 0.000000
vn 0.276393 0.850651 0.447214
vn -0.587785 0.809017 -0.000000
vn -0.951057 0.309017 0.000000
vn -0.723607 0.525731 0.447214
vn -0.951056 -0.309017 0.000000
vn -0.587785 -0.809017 0.000000
vn -0.723607 -0.525731 0.447214
vn 0.000000 -1.000000 0.000000
vn 0.587785 -0.809017 0.000000
vn 0.276393 -0.850651 0.447214
vn 0.951057 -0.309017 -0.000000
vn 0.951057 0.309017 0.000000
vn 0.894427 0.000000 0.447214
vn 0.688191 0.500000 0.525731
vn -0.262866 0.809017 0.525731
vn -0.850651 -0.000000 0.525731
vn -0.262865 -0.809017 0.525731
vn 0.688191 -0.500000 0.525731
vn 0.525731 0.000000 0.850651
vn 0.162460 0.500000 0.850651
vn -0.000000 -0.000000 1.000000
vn -0.425325 0.309017 0.850651
vn -0.425325 -0.309017 0.850651
vn 0.162460 -0.500000 0.850651
s 1
g pPlatonic1
usemtl initialShadingGroup
f 1/1/1 13/43/2 14/14/3
f 13/43/2 3/44/4 15/15/5
f 13/43/2 15/15/5 14/14/3
f 14/14/3 15/15/5 2/2/6
f 1/1/1 16/45/7 13/43/2
f 16/16/7 4/4/8 17/17/9
f 16/16/7 17/17/9 13/13/2
f 13/13/2 17/17/9 3/3/4
f 1/1/1 18/46/10 16/45/7
f 18/18/10 5/5/11 19/19/12
f 18/18/10 19/19/12 16/16/7
f 16/16/7 19/19/12 4/4/8
f 1/1/1 20/20/13 18/46/10
f 20/20/13 6/6/14 21/21/15
f 20/20/13 21/21/15 18/46/10
f 18/46/10 21/21/15 5/47/11
f 1/1/1 14/14/3 20/20/13
f 14/14/3 2/2/6 22/22/16
f 14/14/3 22/22/16 20/20/13
f 20/20/13 22/22/16 6/6/14
f 2/2/6 15/15/5 23/23/17
f 15/15/5 3/44/4 24/48/18
f 15/15/5 24/48/18 23/23/17
f 23/23/17 24/24/18 8/8/19
f 3/3/4 17/17/9 25/25/20
f 17/17/9 4/4/8 26/26/21
f 17/17/9 26/26/21 25/25/20
f 25/25/20 26/26/21 9/9/22
f 4/4/8 19/19/12 27/27/23
f 19/19/12 5/5/11 28/28/24
f 19/19/12 28/28/24 27/27/23
f 27/27/23 28/28/24 10/10/25
f 5/47/11 21/21/15 29/29/26
f 21/21/15 6/6/14 30/30/27
f 21/21/15 30/30/27 29/29/26
f 29/29/26 30/30/27 11/11/28
f 6/6/14 22/22/16 31/31/29
f 22/22/16 2/2/6 32/32/30
f 22/22/16 32/32/30 31/31/29
f 31/31/29 32/32/30 7/7/31
f 2/2/6 23/23/17 32/32/30
f 23/23/17 8/8/19 33/33/32
f 23/23/17 33/33/32 32/32/30
f 32/32/30 33/33/32 7/7/31
f 3/3/4 25/25/20 24/24/18
f 25/25/20 9/9/22 34/34/33
f 25/25/20 34/34/33 24/24/18
f 24/24/18 34/34/33 8/8/19
f 4/4/8 27/27/23 26/26/21
f 27/27/23 10/10/25 35/35/34
f 27/27/23 35/35/34 26/26/21
f 26/26/21 35/35/34 9/9/22
f 5/47/11 29/29/26 28/28/24
f 29/29/26 11/11/28 36/36/35
f 29/29/26 36/36/35 28/28/24
f 28/28/24 36/36/35 10/10/25
f 6/6/14 31/31/29 30/30/27
f 31/31/29 7/7/31 37/37/36
f 31/31/29 37/37/36 30/30/27
f 30/30/27 37/37/36 11/11/28
f 7/7/31 33/33/32 38/38/37
f 33/33/32 8/8/19 39/39/38
f 33/33/32 39/39/38 38/38/37
f 38/38/37 39/39/38 12/12/39
f 8/8/19 34/34/33 39/39/38
f 34/34/33 9/9/22 40/40/40
f 34/34/33 40/40/40 39/39/38
f 39/39/38 40/40/40 12/12/39
f 9/9/22 35/35/34 40/40/40
f 35/35/34 10/10/25 41/41/41
f 35/35/34 41/41/41 40/40/40
f 40/40/40 41/41/41 12/12/39
f 10/10/25 36/36/35 41/41/41
f 36/36/35 11/11/28 42/42/42
f 36/36/35 42/42/42 41/41/41
f 41/41/41 42/42/42 12/12/39
f 11/11/28 37/37/36 42/42/42
f 37/37/36 7/7/31 38/38/37
f 37/37/36 38/38/37 42/42/42
f 42/42/42 38/38/37 12/12/39
