# This file uses centimeters as units for non-parametric coordinates.

mtllib plane.mtl
g default
v -1.000000 0.085938 -0.101894
v 0.437500 -0.757812 -0.108674
v -0.997396 -0.934896 -0.022390
v -0.979492 -0.979492 -0.015942
v 0.948039 -0.994914 -0.014030
v 0.979492 -0.979492 -0.016507
v 0.998901 0.920776 0.060228
v 0.994914 0.948039 0.061633
v 0.979492 0.979492 0.063065
v -0.920776 0.998901 0.067373
v 0.007813 -1.000000 -0.029109
v -1.000000 -0.093750 -0.095732
v -0.468750 1.000000 -0.048412
v 0.500000 1.000000 0.076604
v -0.460938 -0.062500 0.068418
v -1.000000 -0.203125 -0.076947
v 0.257813 -1.000000 -0.039606
v 0.726563 1.000000 0.120651
v -0.789063 1.000000 0.037436
v 1.000000 -0.062500 0.009365
v 1.000000 0.429688 0.083023
v -0.359375 1.000000 -0.038185
v 1.000000 -0.671875 -0.009460
v 0.656250 1.000000 0.124541
v -0.859375 0.492188 -0.068769
v 0.515625 0.351563 0.066162
v 0.609375 -1.000000 -0.054042
v -0.993230 0.954168 0.098818
v -0.998255 0.927943 0.104948
v -0.999863 0.898300 0.108740
v 0.988826 -0.965388 -0.016096
v 0.999364 -0.913427 -0.010200
v 0.959961 0.991211 0.062242
v 0.890584 0.999959 0.067672
v -0.554688 -0.476562 0.011456
v -0.445313 -1.000000 -0.042362
v -0.273438 0.796875 -0.029605
v -0.460938 0.851563 -0.075773
v 0.734375 -0.406250 0.047417
v 0.515625 -0.601562 -0.091221
v -0.867188 -0.828125 0.011970
v -1.000000 0.593750 0.002469
v 0.375000 0.734375 0.011231
v 0.015625 0.843750 0.009860
v 0.203125 0.890625 0.004551
v 0.609375 0.148438 0.086112
v 0.875000 0.914063 0.060804
v 0.920776 0.998901 0.063021
v -0.234375 1.000000 -0.039188
v 0.070312 -0.203125 0.071612
v 0.335937 -0.101562 0.031195
v 1.000000 -0.539062 0.038482
v -0.007813 -0.601562 -0.040333
v -0.648438 1.000000 -0.020697
v 0.109375 1.000000 0.043294
v 1.000000 0.203125 0.003454
v 0.875000 0.015625 0.025418
v 0.000000 0.289063 0.060837
v 0.507812 0.210938 0.080757
v -0.304688 0.195312 0.076630
v -0.914063 0.343750 -0.084246
v -0.851563 0.085938 -0.062511
v -0.890584 0.999959 0.058758
v -0.695312 0.695313 -0.024644
v -0.382812 -0.492188 -0.040547
v -0.039063 -0.812500 -0.071414
v -0.804688 -0.695312 0.037029
v -1.000000 -0.289062 -0.045555
v 0.679688 -0.437500 0.031465
v 0.999995 -0.882807 -0.006810
v 0.140625 -0.867187 -0.079418
v 0.351563 -0.906250 -0.101751
v 0.460938 -0.289062 0.015734
v 0.679688 -0.203125 0.034253
v -0.304688 0.656250 -0.054865
v 0.820313 0.632813 0.107199
v 0.710938 0.546875 0.131053
v 1.000000 0.687500 0.124302
v 0.468750 0.601563 0.044005
v 0.695312 0.882812 0.106759
v -0.406250 0.640625 -0.066900
v -0.148438 -0.312500 0.010853
v -0.085938 -0.453125 0.004133
v -0.218750 -0.359375 -0.034963
v -0.500000 -0.203125 0.033652
v 0.601563 -0.296875 0.014694
v 0.523438 -0.492187 -0.044581
v 0.296875 -0.257812 0.049501
v -0.023438 -0.281250 0.037513
v 0.289063 -0.789062 -0.124065
v 0.320312 -1.000000 -0.043347
v 0.468750 -1.000000 -0.071453
v 0.117188 -1.000000 -0.044374
v 0.585938 -0.890625 -0.114466
v 0.920776 -0.998901 -0.012550
v 0.890584 -0.999959 -0.013933
v 0.585938 -0.820312 -0.122897
v 0.648438 -0.703125 -0.095057
v -1.000000 -0.445312 -0.022399
v -0.882813 -0.437500 0.005676
v -0.726563 -0.835937 -0.026193
v -0.546875 -0.773437 -0.034516
v -0.941605 -0.996292 -0.007032
v -0.913427 -0.999364 -0.002350
v -0.988826 -0.965388 -0.019337
v -0.648438 -1.000000 -0.014010
v -1.000000 -0.562500 0.008928
v -0.999675 -0.905924 -0.020326
v -1.000000 -0.703125 0.025928
v -0.281250 -1.000000 -0.068708
v -0.359375 -0.921875 -0.104868
v -0.460938 -0.789062 -0.062596
v -0.539063 -0.937500 -0.048608
v -0.320313 -1.000000 -0.070464
v -0.507813 -0.585938 0.013471
v -0.281250 -0.671875 -0.112448
v -0.718750 0.539062 -0.060906
v -0.867188 0.789063 0.075584
v -0.979492 0.979492 0.089572
v -0.948039 0.994914 0.076751
v -1.000000 0.789063 0.098478
v -0.804688 0.875000 0.065221
v -0.679688 0.187500 -0.005586
v -1.000000 0.421875 -0.065322
v -0.460938 0.140625 0.038515
v -0.367188 -0.078125 0.074432
v -0.468750 0.406250 -0.048214
v -0.234375 0.406250 -0.020027
v 0.179688 0.726563 -0.000398
v 0.304688 0.585938 -0.029603
v 0.132813 0.625000 -0.012122
v -0.117188 0.734375 -0.047682
v 0.156250 0.007812 0.056287
v 0.320313 0.171875 0.031496
v 0.359375 0.062500 0.014208
v -0.085938 -0.007812 0.093892
v -0.062500 0.164062 0.063948
v 0.078125 0.406250 0.012726
v 1.000000 0.062500 -0.006518
v 0.562500 -0.015625 0.065782
v 0.851562 0.500000 0.132075
v 1.000000 0.312500 0.010174
v 0.796875 0.281250 0.068991
v 0.367188 0.445312 0.040100
v 0.195312 0.312500 0.016252
v 0.476563 0.898438 0.046346
v -0.171875 0.304688 0.024655
v -0.773438 0.296875 -0.060844
v -0.640625 0.343750 -0.067514
v -0.210938 -0.531250 -0.060613
v -0.375000 -0.875000 -0.110351
v -0.195313 -0.710938 -0.108614
v -0.726563 -0.445312 -0.007353
v -0.671875 -0.585937 0.008310
v -0.804688 -0.117187 -0.051061
v -0.750000 -0.242188 -0.019088
v 0.789063 -0.585937 -0.007189
v 0.906250 -0.812500 -0.014612
v 0.179688 -0.445312 0.011060
v 0.898438 -0.281250 0.017352
v -0.195313 -0.093750 0.043712
v -0.234375 0.109375 0.098768
v -0.359375 -0.265625 -0.009189
v -0.140625 0.921875 -0.020583
v 0.999959 0.890584 0.061216
vt 0.937500 0.957031
vt 1.000000 0.960938
vt 0.945313 1.000000
vt 0.960938 1.000000
vt 1.000000 0.976563
vt 1.000000 1.000000
vt 0.984375 1.000000
vt 0.382813 1.000000
vt 0.429688 0.960938
vt 0.457031 0.496094
vt 0.535156 0.398438
vt 0.949219 0.359375
vt 1.000000 0.468750
vt 1.000000 0.230469
vt 0.097656 0.441406
vt 0.269531 0.468750
vt 0.164062 0.207031
vt 0.246094 0.207031
vt 0.496094 0.199219
vt 0.457031 0.273438
vt 0.265625 0.703125
vt 0.140625 0.769531
vt 0.554688 1.000000
vt 0.738281 0.949219
vt 0.757813 0.675781
vt 0.804688 0.574219
vt 0.937500 0.507813
vt 1.000000 0.656250
vt 0.898438 0.640625
vt 0.539062 0.703125
vt 0.652344 0.792969
vt 0.683594 0.722656
vt 0.500000 0.644531
vt 0.753906 0.605469
vt 0.601562 0.945313
vt 0.589844 0.863281
vt 0.734375 0.800781
vt 0.687500 0.867187
vt 0.347656 0.597656
vt 0.414062 0.652344
vt 0.468750 0.582031
vt 0.042969 0.671875
vt 0.070313 0.746094
vt 0.269531 0.570313
vt 0.179688 0.671875
vt 0.054688 1.000000
vt 0.066406 0.894531
vt 0.308594 0.253906
vt 0.359375 0.164063
vt 0.269531 0.105469
vt 0.480469 0.093750
vt 0.226563 0.113281
vt 0.000000 0.355469
vt 0.222656 0.261719
vt 0.250000 0.398438
vt 0.839844 0.281250
vt 0.757813 0.199219
vt 0.792969 0.054688
vt 1.000000 0.164063
vt 0.953125 0.093750
vt 0.589844 0.277344
vt 0.570312 0.066406
vt 0.730469 0.355469
vt 0.839844 0.398438
vt 0.320313 0.367188
vt 0.316406 0.460938
vt 0.390625 0.320312
vt 0.425781 0.343750
vt 0.269531 0.925781
vt 0.363281 0.898438
vt 0.828125 1.000000
vt 0.855469 0.773438
vt 0.925781 0.750000
vt 1.000000 0.843750
vt 0.847656 0.941406
vt 0.750000 1.000000
vt 0.347656 0.828125
vt 0.296875 0.820312
vt 0.152344 0.847656
vt 0.265625 1.000000
vt 0.488281 0.359375
vt 0.867188 0.296875
vt 0.800781 0.351562
vt 0.761719 0.253906
vt 0.648438 0.371094
vt 0.644531 0.105469
vt 0.675781 0.046875
vt 0.718750 0.121094
vt 0.960938 0.000000
vt 1.000000 0.000000
vt 0.976563 0.000000
vt 0.804688 0.000000
vt 0.824219 0.148438
vt 0.792969 0.089844
vt 0.894531 0.207031
vt 0.125000 0.378906
vt 0.058594 0.281250
vt 0.000000 0.277344
vt 0.136719 0.277344
vt 0.000000 0.453125
vt 0.000000 0.398438
vt 0.136719 0.082031
vt 0.097656 0.152344
vt 0.230469 0.031250
vt 0.277344 0.000000
vt 0.000000 0.046875
vt 0.066406 0.085938
vt 0.000000 0.011719
vt 0.027344 0.000000
vt 0.000000 0.000000
vt 0.000000 0.031250
vt 0.175781 0.000000
vt 0.000000 0.218750
vt 0.000000 0.148438
vt 0.312500 0.062500
vt 0.359375 0.000000
vt 0.320312 0.039062
vt 0.503906 0.000000
vt 0.339844 0.000000
vt 0.000000 0.710938
vt 0.000000 0.796875
vt 0.000000 0.949219
vt 0.039062 1.000000
vt 0.000000 1.000000
vt 0.023438 1.000000
vt 0.000000 0.964844
vt 0.000000 0.894531
vt 0.097656 0.937500
vt 0.160156 0.593750
vt 0.074219 0.542969
vt 0.382813 0.554688
vt 0.382812 0.703125
vt 0.441406 0.867188
vt 0.566406 0.812500
vt 0.507812 0.921875
vt 0.660156 0.585938
vt 0.578125 0.503906
vt 0.679688 0.531250
vt 0.597656 0.656250
vt 1.000000 0.531250
vt 1.000000 0.601563
vt 0.781250 0.492188
vt 1.000000 0.714844
vt 0.113281 0.648438
vt 0.105469 1.000000
vt 0.394531 0.234375
vt 0.402344 0.144531
vt 0.667969 0.449219
vt 0.402344 0.453125
vt 0.863281 1.000000
vt 1.000000 0.945313
vt 0.910156 0.816406
vt 0.175781 1.000000
vt 1.000000 0.058594
vt 0.320313 1.000000
vt 0.660156 0.000000
vt 0.734375 0.000000
vt 0.558594 0.000000
vt 0.628906 0.000000
vt 0.945313 0.000000
vt 1.000000 0.011719
vt 1.000000 0.042969
vt 0.042969 0.000000
vt 0.000000 0.980469
vt 0.000000 0.542969
vn -0.033762 0.116985 0.992560
vn -0.083269 0.007869 0.996496
vn -0.090359 0.014633 0.995802
vn 0.039175 -0.066634 0.997008
vn 0.166945 -0.108705 0.979955
vn -0.106457 -0.081119 0.991003
vn -0.119802 -0.105986 0.987124
vn -0.214323 -0.074562 0.973913
vn -0.218877 -0.085969 0.971958
vn -0.223104 -0.047718 0.973626
vn 0.030981 -0.032264 0.998999
vn 0.032456 -0.012652 0.999393
vn 0.040145 -0.022364 0.998944
vn -0.314695 -0.028833 0.948755
vn -0.344869 0.020019 0.938437
vn -0.353695 -0.018220 0.935184
vn -0.057872 0.102235 0.993075
vn -0.034485 0.118780 0.992322
vn -0.058516 0.120133 0.991032
vn -0.058455 -0.093711 0.993882
vn 0.352432 -0.037485 0.935087
vn 0.349101 -0.048369 0.935836
vn -0.109179 -0.039254 0.993247
vn -0.125515 -0.001459 0.992091
vn -0.123468 -0.036657 0.991671
vn 0.116655 0.217695 0.969020
vn 0.123886 0.245272 0.961506
vn -0.194869 0.126675 0.972615
vn -0.209672 0.097186 0.972930
vn -0.334456 0.155103 0.929560
vn -0.324103 0.160827 0.932251
vn 0.044904 0.109885 0.992930
vn -0.189742 0.093878 0.977336
vn -0.101907 -0.047849 0.993643
vn -0.112122 -0.022460 0.993441
vn -0.127619 0.037192 0.991126
vn -0.402031 0.115112 0.908362
vn -0.135517 0.252691 0.958010
vn 0.241410 0.265901 0.933284
vn 0.210616 0.298285 0.930949
vn 0.222647 0.279357 0.934017
vn 0.183653 0.339532 0.922491
vn 0.134778 -0.286183 0.948649
vn 0.019261 -0.319842 0.947275
vn 0.092636 -0.313023 0.945217
vn -0.103385 -0.128641 0.986288
vn 0.229934 -0.039221 0.972416
vn -0.026374 0.153330 0.987823
vn 0.004169 0.183450 0.983020
vn -0.025369 0.183568 0.982679
vn -0.014594 -0.223784 0.974530
vn -0.028024 -0.240008 0.970366
vn -0.022543 -0.217321 0.975840
vn -0.377298 0.000870 0.926091
vn -0.086501 0.138658 0.986555
vn -0.209934 -0.077487 0.974640
vn -0.021380 0.103064 0.994445
vn -0.236489 -0.162053 0.958025
vn -0.249235 -0.179747 0.951616
vn -0.266025 -0.176585 0.947654
vn -0.207278 -0.105439 0.972583
vn -0.032058 -0.186735 0.981887
vn -0.234396 -0.143707 0.961461
vn 0.268576 0.026982 0.962881
vn 0.111731 -0.032131 0.993219
vn 0.049468 0.268420 0.962031
vn -0.055657 -0.109127 0.992468
vn -0.139422 0.053148 0.988806
vn -0.137401 0.008200 0.990482
vn -0.280223 -0.087125 0.955973
vn -0.201618 -0.190556 0.960749
vn -0.294917 -0.067075 0.953166
vn -0.106907 -0.166963 0.980150
vn -0.396667 -0.231601 0.888266
vn 0.247140 -0.108291 0.962910
vn 0.266234 -0.096408 0.959075
vn 0.131436 -0.205953 0.969695
vn 0.126847 0.119770 0.984665
vn 0.049073 -0.253249 0.966156
vn 0.212661 -0.304872 0.928347
vn -0.154947 -0.270580 0.950146
vn 0.111996 -0.210151 0.971233
vn 0.066822 -0.216672 0.973955
vn 0.219660 -0.270715 0.937263
vn 0.065135 -0.294792 0.953339
vn -0.045787 -0.331074 0.942493
vn 0.224506 0.161151 0.961055
vn 0.099720 0.113004 0.988578
vn 0.061673 0.348138 0.935412
vn 0.097131 0.307994 0.946417
vn 0.093402 0.347374 0.933064
vn -0.084464 0.121235 0.989024
vn -0.079370 0.094697 0.992337
vn 0.170232 0.269578 0.947813
vn -0.362998 0.155620 0.918703
vn -0.304440 -0.084557 0.948771
vn -0.386746 0.019780 0.921974
vn -0.004399 -0.048209 0.998828
vn -0.030415 -0.050933 0.998239
vn -0.034987 -0.054036 0.997926
vn 0.078325 -0.026170 0.996584
vn 0.085400 -0.039865 0.995549
vn -0.040336 0.009534 0.999141
vn -0.046947 0.463551 0.884826
vn -0.227784 0.013324 0.973620
vn 0.131102 0.139069 0.981566
vn -0.244071 0.124803 0.961693
vn -0.258877 0.124632 0.957836
vn 0.072851 -0.089831 0.993289
vn 0.145168 -0.079033 0.986245
vn 0.151234 0.098827 0.983545
vn 0.112818 0.404394 0.907600
vn 0.093575 -0.085366 0.991946
vn -0.164391 0.158629 0.973557
vn -0.173445 0.146068 0.973951
vn -0.182459 0.143773 0.972645
vn -0.196655 0.102382 0.975113
vn -0.193071 0.107984 0.975225
vn -0.149349 -0.069225 0.986358
vn -0.110671 -0.213976 0.970549
vn -0.120435 0.069054 0.990317
vn -0.192707 0.330501 0.923923
vn 0.084021 0.490621 0.867313
vn -0.160598 0.180717 0.970335
vn 0.234621 -0.401846 0.885140
vn 0.148293 -0.447408 0.881949
vn 0.253939 0.319103 0.913065
vn 0.267639 0.309172 0.912569
vn 0.136325 0.217653 0.966459
vn 0.135794 0.200995 0.970135
vn 0.175575 0.033919 0.983881
vn 0.168584 -0.169483 0.971007
vn -0.281251 0.049874 0.958337
vn 0.128959 -0.438221 0.889568
vn 0.151226 0.283552 0.946958
vn 0.082099 -0.263609 0.961129
vn 0.030746 -0.294305 0.955217
vn 0.069912 -0.129081 0.989167
vn -0.319685 -0.019085 0.947332
vn 0.056747 -0.145140 0.987782
vn 0.030906 -0.238271 0.970707
vn -0.226507 -0.227214 0.947137
vn 0.209666 0.008307 0.977738
vn 0.202011 -0.107127 0.973507
vn -0.106921 -0.225144 0.968441
vn 0.188888 -0.317777 0.929161
vn -0.245976 -0.072916 0.966529
vn 0.526812 -0.076009 0.846576
vn 0.501532 -0.126954 0.855773
vn -0.298755 -0.250033 0.920994
vn 0.038922 -0.247171 0.968190
vn 0.199485 0.165103 0.965892
vn -0.215917 -0.289695 0.932446
vn -0.068856 -0.088398 0.993703
vn -0.259853 -0.034897 0.965017
vn -0.239970 -0.237859 0.941190
vn 0.308632 0.022677 0.950911
vn -0.062829 0.013372 0.997935
vn 0.180624 0.510485 0.840702
vn -0.003484 0.508987 0.860767
vn 0.212676 0.448539 0.868091
vn 0.051227 -0.071718 0.996109
vn -0.254285 0.139510 0.957014
vn -0.165283 0.113925 0.979644
vn -0.050402 0.005682 0.998713
s 1
g Mesh
usemtl initialShadingGroup
f 165/151/1 7/2/2 47/1/3
f 47/1/3 48/4/4 34/3/5
f 7/2/2 8/5/6 47/1/3
f 8/5/6 9/6/7 47/1/3
f 44/135/8 49/8/9 164/9/10
f 160/12/11 20/13/12 57/27/13
f 155/15/14 15/16/15 123/129/16
f 117/22/17 127/21/18 81/78/19
f 127/21/18 117/22/17 149/45/20
f 57/27/13 142/28/21 143/29/22
f 145/139/23 144/32/24 138/30/25
f 134/136/26 145/139/23 58/33/27
f 128/132/28 75/77/29 127/21/18
f 125/44/30 60/39/31 127/21/18
f 137/41/32 58/33/27 147/40/33
f 117/22/17 25/43/34 61/42/35
f 148/144/36 117/22/17 61/42/35
f 62/130/37 123/129/16 148/144/36
f 126/66/38 125/44/30 123/129/16
f 122/128/39 19/145/40 119/124/41
f 19/145/40 63/46/42 119/124/41
f 116/49/43 150/146/44 65/48/45
f 151/115/46 116/49/43 112/50/47
f 100/97/48 156/96/49 68/53/50
f 159/61/51 53/19/52 71/62/53
f 69/56/54 39/82/55 86/83/56
f 39/82/55 52/14/57 160/12/11
f 89/81/58 82/68/59 83/20/60
f 80/75/61 18/150/62 24/71/63
f 76/152/64 80/75/61 77/72/65
f 141/73/66 76/152/64 77/72/65
f 141/73/66 78/74/67 76/152/64
f 75/77/29 131/134/68 132/133/69
f 127/21/18 75/77/29 81/78/19
f 22/155/70 13/80/71 38/69/72
f 81/78/19 22/155/70 38/69/72
f 37/70/73 22/155/70 81/78/19
f 83/20/60 82/68/59 84/67/74
f 35/54/75 65/48/45 85/55/76
f 65/48/45 163/65/77 85/55/76
f 65/48/45 35/54/75 115/18/78
f 65/48/45 84/67/74 163/65/77
f 163/65/77 126/66/38 85/55/76
f 87/84/79 86/83/56 73/63/80
f 140/142/81 74/64/82 46/26/83
f 74/64/82 140/142/81 86/83/56
f 159/61/51 40/57/84 88/85/85
f 40/57/84 87/84/79 88/85/85
f 88/85/85 50/11/86 89/81/58
f 88/85/85 133/137/87 136/10/88
f 72/87/89 90/86/90 93/158/91
f 72/87/89 2/88/92 90/86/90
f 71/62/53 53/19/52 66/51/93
f 93/158/91 66/51/93 11/118/94
f 93/158/91 71/62/53 66/51/93
f 94/58/95 158/60/96 98/93/97
f 95/89/98 32/162/99 96/160/100
f 5/91/101 32/162/99 95/89/98
f 6/90/102 32/162/99 5/91/101
f 96/160/100 32/162/99 158/60/96
f 72/87/89 97/94/103 2/88/92
f 27/92/104 96/160/100 94/58/95
f 98/93/97 40/57/84 97/94/103
f 35/54/75 85/55/76 153/99/105
f 153/99/105 100/97/48 154/17/106
f 155/15/14 12/100/107 16/101/108
f 113/104/109 101/102/110 106/112/111
f 36/105/112 113/104/109 106/112/111
f 113/104/109 112/50/47 102/52/113
f 4/110/114 103/109/115 105/108/116
f 67/103/117 100/97/48 107/113/118
f 67/103/117 109/114/119 108/106/120
f 111/117/121 66/51/93 151/115/46
f 110/116/122 66/51/93 111/117/121
f 102/52/113 112/50/47 115/18/78
f 113/104/109 151/115/46 112/50/47
f 114/119/123 111/117/121 36/105/112
f 110/116/122 111/117/121 114/119/123
f 112/50/47 65/48/45 115/18/78
f 152/147/124 116/49/43 151/115/46
f 25/43/34 117/22/17 118/47/125
f 25/43/34 118/47/125 42/121/126
f 63/46/42 10/123/127 119/124/41
f 119/124/41 10/123/127 120/125/128
f 122/128/39 28/164/129 29/126/130
f 122/128/39 29/126/130 30/122/131
f 121/127/132 122/128/39 30/122/131
f 12/100/107 62/130/37 1/165/133
f 25/43/34 42/121/126 124/120/134
f 137/41/32 60/39/31 162/131/135
f 137/41/32 147/40/33 60/39/31
f 136/10/88 137/41/32 162/131/135
f 15/16/15 126/66/38 123/129/16
f 162/131/135 60/39/31 126/66/38
f 127/21/18 60/39/31 128/132/28
f 60/39/31 147/40/33 128/132/28
f 130/31/136 43/38/137 129/36/138
f 79/37/139 43/38/137 130/31/136
f 129/36/138 45/35/140 44/135/8
f 135/138/141 59/34/142 134/136/26
f 133/137/87 135/138/141 134/136/26
f 133/137/87 58/33/27 137/41/32
f 133/137/87 134/136/26 58/33/27
f 145/139/23 138/30/25 58/33/27
f 139/140/143 56/141/144 57/27/13
f 143/29/22 77/72/65 26/25/145
f 77/72/65 144/32/24 26/25/145
f 143/29/22 26/25/145 59/34/142
f 143/29/22 21/143/146 141/73/66
f 144/32/24 79/37/139 130/31/136
f 134/136/26 144/32/24 145/139/23
f 146/24/147 129/36/138 43/38/137
f 146/24/147 45/35/140 129/36/138
f 43/38/137 80/75/61 146/24/147
f 79/37/139 80/75/61 43/38/137
f 147/40/33 58/33/27 128/132/28
f 149/45/20 117/22/17 148/144/36
f 123/129/16 149/45/20 148/144/36
f 54/153/148 19/145/40 122/128/39
f 118/47/125 64/79/149 54/153/148
f 152/147/124 150/146/44 116/49/43
f 66/51/93 53/19/52 152/147/124
f 67/103/117 101/102/110 154/17/106
f 123/129/16 62/130/37 155/15/14
f 85/55/76 155/15/14 156/96/49
f 52/14/57 39/82/55 157/95/150
f 52/14/57 157/95/150 158/60/96
f 158/60/96 23/59/151 52/14/57
f 90/86/90 2/88/92 159/61/51
f 135/138/141 133/137/87 51/148/152
f 51/148/152 140/142/81 135/138/141
f 73/63/80 51/148/152 88/85/85
f 160/12/11 57/27/13 74/64/82
f 163/65/77 161/149/153 162/131/135
f 89/81/58 161/149/153 82/68/59
f 37/70/73 164/9/10 49/8/9
f 47/1/3 34/3/5 18/150/62
f 76/152/64 47/1/3 80/75/61
f 78/74/67 165/151/1 76/152/64
f 76/152/64 165/151/1 47/1/3
f 47/1/3 33/7/154 48/4/4
f 47/1/3 9/6/7 33/7/154
f 44/135/8 55/23/155 49/8/9
f 50/11/86 136/10/88 161/149/153
f 20/13/12 139/140/143 57/27/13
f 86/83/56 140/142/81 51/148/152
f 53/19/52 159/61/51 83/20/60
f 38/69/72 13/80/71 54/153/148
f 64/79/149 38/69/72 54/153/148
f 146/24/147 14/76/156 55/23/155
f 141/73/66 77/72/65 143/29/22
f 46/26/83 57/27/13 143/29/22
f 56/141/144 142/28/21 57/27/13
f 140/142/81 59/34/142 135/138/141
f 131/134/68 130/31/136 129/36/138
f 123/129/16 125/44/30 149/45/20
f 154/17/106 100/97/48 67/103/117
f 41/107/157 101/102/110 67/103/117
f 155/15/14 62/130/37 12/100/107
f 157/95/150 69/56/54 40/57/84
f 94/58/95 98/93/97 97/94/103
f 98/93/97 158/60/96 157/95/150
f 32/162/99 70/154/158 158/60/96
f 158/60/96 70/154/158 23/59/151
f 93/158/91 90/86/90 71/62/53
f 88/85/85 87/84/79 73/63/80
f 86/83/56 39/82/55 74/64/82
f 126/66/38 163/65/77 162/131/135
f 75/77/29 37/70/73 81/78/19
f 75/77/29 132/133/69 37/70/73
f 141/73/66 21/143/146 78/74/67
f 144/32/24 77/72/65 79/37/139
f 80/75/61 24/71/63 146/24/147
f 24/71/63 14/76/156 146/24/147
f 79/37/139 77/72/65 80/75/61
f 75/77/29 128/132/28 131/134/68
f 138/30/25 131/134/68 128/132/28
f 64/79/149 81/78/19 38/69/72
f 84/67/74 82/68/59 163/65/77
f 83/20/60 84/67/74 150/146/44
f 65/48/45 150/146/44 84/67/74
f 85/55/76 126/66/38 15/16/15
f 39/82/55 160/12/11 74/64/82
f 40/57/84 69/56/54 87/84/79
f 69/56/54 86/83/56 87/84/79
f 83/20/60 159/61/51 89/81/58
f 159/61/51 88/85/85 89/81/58
f 50/11/86 88/85/85 136/10/88
f 91/156/159 72/87/89 17/159/160
f 91/156/159 92/157/161 72/87/89
f 92/157/161 94/58/95 72/87/89
f 17/159/160 72/87/89 93/158/91
f 71/62/53 90/86/90 159/61/51
f 96/160/100 158/60/96 94/58/95
f 6/90/102 31/161/162 32/162/99
f 94/58/95 97/94/103 72/87/89
f 92/157/161 27/92/104 94/58/95
f 98/93/97 157/95/150 40/57/84
f 153/99/105 156/96/49 100/97/48
f 156/96/49 153/99/105 85/55/76
f 99/98/163 100/97/48 68/53/50
f 107/113/118 100/97/48 99/98/163
f 68/53/50 156/96/49 155/15/14
f 68/53/50 155/15/14 16/101/108
f 113/104/109 102/52/113 101/102/110
f 106/112/111 101/102/110 41/107/157
f 41/107/157 67/103/117 108/106/120
f 103/109/115 104/163/164 105/108/116
f 108/106/120 105/108/116 41/107/157
f 3/111/165 105/108/116 108/106/120
f 104/163/164 106/112/111 105/108/116
f 106/112/111 41/107/157 105/108/116
f 109/114/119 67/103/117 107/113/118
f 110/116/122 11/118/94 66/51/93
f 36/105/112 111/117/121 113/104/109
f 111/117/121 151/115/46 113/104/109
f 112/50/47 116/49/43 65/48/45
f 118/47/125 117/22/17 64/79/149
f 117/22/17 81/78/19 64/79/149
f 121/127/132 42/121/126 118/47/125
f 122/128/39 119/124/41 28/164/129
f 121/127/132 118/47/125 122/128/39
f 122/128/39 118/47/125 54/153/148
f 1/165/133 62/130/37 124/120/134
f 124/120/134 61/42/35 25/43/34
f 62/130/37 61/42/35 124/120/134
f 61/42/35 62/130/37 148/144/36
f 125/44/30 126/66/38 60/39/31
f 149/45/20 125/44/30 127/21/18
f 131/134/68 129/36/138 132/133/69
f 138/30/25 144/32/24 131/134/68
f 144/32/24 130/31/136 131/134/68
f 44/135/8 45/35/140 55/23/155
f 136/10/88 133/137/87 137/41/32
f 46/26/83 59/34/142 140/142/81
f 46/26/83 74/64/82 57/27/13
f 46/26/83 143/29/22 59/34/142
f 143/29/22 142/28/21 21/143/146
f 134/136/26 59/34/142 144/32/24
f 144/32/24 59/34/142 26/25/145
f 146/24/147 55/23/155 45/35/140
f 128/132/28 58/33/27 138/30/25
f 152/147/124 53/19/52 150/146/44
f 53/19/52 83/20/60 150/146/44
f 151/115/46 66/51/93 152/147/124
f 154/17/106 115/18/78 35/54/75
f 154/17/106 35/54/75 153/99/105
f 101/102/110 102/52/113 154/17/106
f 102/52/113 115/18/78 154/17/106
f 85/55/76 15/16/15 155/15/14
f 157/95/150 39/82/55 69/56/54
f 159/61/51 2/88/92 40/57/84
f 2/88/92 97/94/103 40/57/84
f 88/85/85 51/148/152 133/137/87
f 73/63/80 86/83/56 51/148/152
f 160/12/11 52/14/57 20/13/12
f 161/149/153 136/10/88 162/131/135
f 82/68/59 161/149/153 163/65/77
f 89/81/58 50/11/86 161/149/153
f 22/155/70 37/70/73 49/8/9
f 37/70/73 132/133/69 164/9/10
f 44/135/8 164/9/10 132/133/69
f 132/133/69 129/36/138 44/135/8
f 80/75/61 47/1/3 18/150/62
